<svg xmlns="http://www.w3.org/2000/svg"  viewBox="0 0 48 48" width="48px" height="48px" baseProfile="basic"><path fill="#52cccc" d="M42.586,13.414L16,40L5,43l3-11L34.586,5.414c1.105,0,1.724,0,2.828,0l5.172,5.172	C42.586,11.69,42.586,12.31,42.586,13.414z" opacity=".15"/><rect width="2.828" height="11.314" x="33.654" y="7.275" fill="#52cccc" opacity=".8" transform="rotate(-45.001 35.068 12.933)"/><path fill="#52cccc" d="M35.524,19.053L35.171,18.7l1.414-1.415l0.354,0.354L35.524,19.053z M36.049,16.75	l-0.354-0.354l-1.414,1.415l0.354,0.354L36.049,16.75z M35.16,15.861l-0.354-0.354l-1.414,1.414l0.354,0.354L35.16,15.861z M34.271,14.972l-0.354-0.354l-1.414,1.414l0.354,0.354L34.271,14.972z M33.382,14.083l-0.354-0.354l-1.414,1.414l0.354,0.354	L33.382,14.083z M32.493,13.193l-0.354-0.354l-1.414,1.414l0.354,0.354L32.493,13.193z M31.604,12.304l-0.354-0.354l-1.415,1.414	l0.354,0.354L31.604,12.304z M30.715,11.415l-0.354-0.354l-1.415,1.414l0.354,0.354L30.715,11.415z" opacity=".8"/><polygon fill="#52cccc" points="5,43 6.333,38.333 9.667,41.667" opacity=".8"/><path fill="#52cccc" d="M37.932,4.164h-3.863l-6.873,6.873v1.414L20.646,19h-1.414L8.343,29.889l-0.566,1.98L7.776,31.87	L4.644,43.356l11.486-3.133l0.017-0.017l1.955-0.559l11.92-11.92v-1.396l5.495-5.495h1.397l6.914-6.914V10.06L37.932,4.164z M27.776,12.578l1.735,1.735L10,33.823l-1.735-1.735L27.776,12.578z M12.177,36l19.511-19.511l1.823,1.823L14,37.823L12.177,36z M12,35.823L10.177,34l19.511-19.511l1.823,1.823L12,35.823z M8.166,32.342l7.492,7.492L5.356,42.644L8.166,32.342z M15.912,39.735	L14.177,38l19.511-19.511l1.735,1.735L15.912,39.735z M42.336,13.311l-6.737,6.737l-7.646-7.646l6.737-6.737h2.621l5.025,5.025	V13.311z"/></svg>