<svg xmlns="http://www.w3.org/2000/svg" xmlns:xlink="http://www.w3.org/1999/xlink" viewBox="0,0,256,256" width="48px" height="48px" fill-rule="nonzero"><defs><linearGradient x1="37.747" y1="16.536" x2="10.253" y2="44.031" gradientUnits="userSpaceOnUse" id="color-1"><stop offset="0.014" stop-color="#48bb78"></stop><stop offset="0.046" stop-color="#48bb78"></stop><stop offset="0.208" stop-color="#48bb78"></stop><stop offset="0.37" stop-color="#48bb78"></stop><stop offset="0.532" stop-color="#48bb78"></stop><stop offset="0.692" stop-color="#48bb78"></stop><stop offset="0.849" stop-color="#48bb78"></stop><stop offset="1" stop-color="#ffffff"></stop></linearGradient></defs><g fill="#2f855a" fill-rule="nonzero" stroke="none" stroke-width="1" stroke-linecap="butt" stroke-linejoin="miter" stroke-miterlimit="10" stroke-dasharray="" stroke-dashoffset="0" font-family="none" font-weight="none" font-size="none" text-anchor="none" style="mix-blend-mode: normal"><path d="M0,256v-256h256v256z" id="bgRectangle"></path></g><g fill="none" fill-rule="nonzero" stroke="none" stroke-width="none" stroke-linecap="none" stroke-linejoin="none" stroke-miterlimit="10" stroke-dasharray="" stroke-dashoffset="0" font-family="none" font-weight="none" font-size="none" text-anchor="none" style="mix-blend-mode: normal"><g transform="scale(5.33333,5.33333)"><path d="M40.5,40.863v-19.088c0,-1.838 -0.843,-3.575 -2.287,-4.713l-13.594,-10.711c-0.363,-0.286 -0.875,-0.286 -1.238,0l-13.594,10.711c-1.444,1.137 -2.287,2.874 -2.287,4.713v19.089c0,0.552 0.448,1 1,1h31c0.552,-0.001 1,-0.448 1,-1.001z" fill="url(#color-1)" stroke="none" stroke-width="1" stroke-linecap="butt" stroke-linejoin="miter"></path><path d="M13.41,13.843l-3.624,2.855c-1.443,1.138 -2.286,2.875 -2.286,4.713v18.089c0,1.105 0.895,2 2,2h19.958" fill="none" stroke="#fdfdfd" stroke-width="3" stroke-linecap="round" stroke-linejoin="round"></path><path d="M35,41.5h3.5c1.105,0 2,-0.895 2,-2v-18.089c0,-1.838 -0.843,-3.575 -2.287,-4.713l-13.594,-10.71c-0.363,-0.286 -0.875,-0.286 -1.238,0l-4.572,3.602" fill="none" stroke="#fdfdfd" stroke-width="3" stroke-linecap="round" stroke-linejoin="round"></path><path d="M18.542,35.681v-8.181c0,-0.552 0.448,-1 1,-1h8.917c0.552,0 1,0.448 1,1v14" fill="none" stroke="#fdfdfd" stroke-width="3" stroke-linecap="round" stroke-linejoin="round"></path></g></g></svg>